HIERARCHY
ROOT hip
{
	OFFSET 0.000000 0.000000 0.000000 
	CHANNELS 6 Xposition Yposition Zposition Xrotation Zrotation Yrotation
	JOINT abdomen
	{
		OFFSET 0.000000 3.402643 0.000000 
		CHANNELS 3 Xrotation Zrotation Yrotation
		JOINT chest
		{
			OFFSET 0.000000 8.438565 -0.680529 
			CHANNELS 3 Xrotation Zrotation Yrotation
			JOINT neck
			{
				OFFSET 0.000000 10.207942 -0.272212 
				CHANNELS 3 Xrotation Zrotation Yrotation
				JOINT head
				{
					OFFSET 0.000000 3.130431 0.000000 
					CHANNELS 3 Xrotation Zrotation Yrotation
					End Site
					{
						OFFSET 0.000000 3.130435 0.000000 
					}
				}
			}
			JOINT lCollar
			{
				OFFSET 3.470700 6.669187 -0.816635 
				CHANNELS 3 Yrotation Zrotation Xrotation
				JOINT lShldr
				{
					OFFSET 3.198488 0.000000 0.000000 
					CHANNELS 3 Zrotation Yrotation Xrotation
					JOINT lForeArm
					{
						OFFSET 10.139888 0.000000 0.000000 
						CHANNELS 3 Yrotation Zrotation Xrotation
						JOINT lHand
						{
							OFFSET 8.370511 0.000000 0.000000 
							CHANNELS 3 Zrotation Yrotation Xrotation
							End Site
							{
								OFFSET 4.083176 0.000000 0.000000 
							}
						}
					}
				}
			}
			JOINT rCollar
			{
				OFFSET -3.470700 6.669187 -0.816635 
				CHANNELS 3 Yrotation Zrotation Xrotation
				JOINT rShldr
				{
					OFFSET -3.198488 0.000000 0.000000 
					CHANNELS 3 Zrotation Yrotation Xrotation
					JOINT rForeArm
					{
						OFFSET -10.139888 0.000000 0.000000 
						CHANNELS 3 Yrotation Zrotation Xrotation
						JOINT rHand
						{
							OFFSET -8.370511 0.000000 0.000000 
							CHANNELS 3 Zrotation Yrotation Xrotation
							End Site
							{
								OFFSET -4.083176 0.000000 0.000000 
							}
						}
					}
				}
			}
		}
	}
	JOINT lThigh
	{
		OFFSET 5.308129 -1.633274 1.361059 
		CHANNELS 3 Xrotation Zrotation Yrotation
		JOINT lShin
		{
			OFFSET -2.041588 -20.007561 0.000000 
			CHANNELS 3 Xrotation Zrotation Yrotation
			JOINT lFoot
			{
				OFFSET 0.000000 -19.190928 -1.224953 
				CHANNELS 3 Xrotation Yrotation Zrotation
				End Site
				{
					OFFSET 0.000000 -2.449906 4.627600 
				}
			}
		}
	}
	JOINT rThigh
	{
		OFFSET -5.308129 -1.633274 1.361059 
		CHANNELS 3 Xrotation Zrotation Yrotation
		JOINT rShin
		{
			OFFSET 2.041588 -20.007561 0.000000 
			CHANNELS 3 Xrotation Zrotation Yrotation
			JOINT rFoot
			{
				OFFSET 0.000000 -19.190928 -1.224953 
				CHANNELS 3 Xrotation Yrotation Zrotation
				End Site
				{
					OFFSET 0.000000 -2.449906 4.627600 
				}
			}
		}
	}
}
MOTION
Frames: 20
Frame Time: 0.033333
2.557101 51.437641 -0.804536 5.831998 -2.978933 -4.537802 0.000000 0.000000 0.000000 1.836120 -2.788419 5.797437 27.948660 0.273437 -0.117186 -6.084245 -3.202890 -0.694459 7.670702 2.901502 23.989006 -57.326462 -5.123827 -18.621229 -42.126015 -33.981659 89.868858 -19.570065 10.321102 -61.681866 -16.892672 1.810836 24.999113 38.883213 6.861292 53.614864 62.316753 -15.119535 35.280838 42.139996 -24.120371 -81.757408 12.113813 3.662498 18.094601 6.605711 -3.005438 -0.321686 -5.653288 -13.252614 19.640867 7.925063 0.352060 1.062380 10.065480 4.867369 1.034747 -2.493809 -11.794469 -9.716077 
2.563838 51.389671 -0.914582 5.438682 -1.929474 -3.742385 0.000000 0.000000 0.000000 1.712279 -3.420813 5.654253 28.455992 0.761718 -0.078118 -5.972675 -3.046019 -1.359655 7.166713 3.071463 24.007881 -52.511303 -9.628839 -20.303677 -40.314743 -35.374146 98.087967 -23.114418 10.422645 -61.839699 -17.519758 1.712033 24.998264 33.156704 10.087850 50.566109 62.225460 -12.759210 30.155691 40.521751 -27.265001 -81.097664 12.577579 2.236930 17.551262 5.682181 -2.790781 -0.206527 -4.871957 -13.008823 19.797003 9.109704 -1.249333 0.579762 8.347962 5.836330 1.095023 0.592254 -10.962906 -2.749857 
2.521579 51.374733 -1.002469 4.838174 -1.696723 -3.106997 0.000000 0.000000 0.000000 2.037436 -3.391659 5.654255 28.758692 1.259765 -0.048816 -6.016192 -3.084089 -1.985329 6.753604 3.061454 24.049505 -48.434338 -12.073044 -21.807711 -40.280323 -35.232891 97.780914 -24.975929 12.979629 -63.243500 -18.252251 1.721942 24.998167 29.351328 12.183390 48.603775 61.029816 -13.458984 24.873907 39.094143 -29.342520 -80.610062 13.276709 1.827094 17.374592 5.052900 -2.671488 -0.144822 -4.610101 -12.980447 19.906151 10.270416 -1.522521 0.491538 7.069696 5.886047 0.993034 3.134142 -9.879404 3.773230 
2.442441 51.360958 -1.132149 4.325760 -1.609454 -2.764775 0.000000 0.000000 0.000000 2.293403 -3.255439 5.682943 29.149834 1.630859 -0.019523 -6.073434 -2.966407 -2.278910 6.609262 2.977077 24.066854 -43.446873 -13.908913 -23.650484 -41.947113 -34.418911 94.094063 -26.001106 14.958873 -64.488007 -18.741255 1.559430 24.993122 25.541773 14.736435 46.589546 59.504253 -15.902411 21.448412 39.192112 -31.077843 -80.551109 13.750680 1.690811 17.296574 4.746441 -2.542372 -0.084122 -4.653835 -12.933177 20.117708 11.117067 -1.376132 0.535925 6.123473 5.574663 0.839915 4.914210 -9.058008 8.261025 
2.332322 51.314911 -1.374389 4.183901 -1.248874 -2.432340 0.000000 0.000000 0.000000 2.055715 -3.294366 5.673192 29.843750 2.011571 0.000258 -6.145160 -2.507576 -2.394985 6.831876 3.390082 24.006954 -35.615112 -16.754162 -26.344595 -46.083874 -32.529896 88.978149 -26.256548 15.087328 -64.733353 -19.295841 0.585005 24.713604 19.786842 19.127136 43.384731 56.963909 -20.236418 19.356438 40.047443 -32.290432 -80.746490 13.427844 1.427797 17.221901 4.880315 -2.410644 -0.078895 -4.775022 -12.945338 20.407391 11.509121 -1.562003 0.489909 5.442852 5.481349 0.738940 5.353463 -8.678276 9.572132 
2.259651 51.298477 -1.537690 4.039005 -0.927070 -2.168317 0.000000 0.000000 0.000000 1.858469 -3.313801 5.673190 30.459764 2.294922 0.019907 -5.985500 -2.409222 -2.805592 7.183148 3.708196 23.930109 -28.658152 -19.086054 -28.551695 -49.506084 -30.007893 85.375458 -25.634586 15.029264 -64.535545 -19.858919 -0.341082 24.373741 14.157351 22.645443 40.327023 54.358292 -23.152403 16.467022 39.893112 -32.521507 -80.749176 13.239518 1.123690 17.143986 4.900607 -2.234117 -0.026911 -4.383269 -13.106779 19.920212 11.791885 -1.952411 0.372444 4.819964 5.873326 0.801869 4.958190 -9.386684 7.937090 
2.177322 51.299873 -1.661871 3.717021 -0.722202 -2.031458 0.000000 0.000000 0.000000 1.854365 -3.245667 5.692692 31.026680 2.519531 0.029698 -5.665658 -2.427886 -3.186524 7.678074 4.138599 23.824821 -21.329014 -20.711334 -30.687548 -52.864235 -26.161369 80.400864 -24.757442 16.153965 -64.783035 -20.495153 -1.279804 23.998558 7.409099 25.894796 36.806324 51.050102 -25.135017 9.880328 38.428368 -33.762985 -80.182884 13.310143 1.006029 17.088257 4.942224 -2.143123 0.011738 -3.556456 -13.212878 18.754725 12.309888 -2.001369 0.353550 3.794710 5.920612 0.720902 4.951212 -10.583921 5.869238 
2.043758 51.259464 -1.864492 3.897955 -0.312298 -2.060622 0.000000 0.000000 0.000000 1.359167 -3.430473 5.664000 31.359737 2.714843 0.049236 -5.172004 -2.397643 -3.587379 8.559956 5.181440 23.571848 -10.568296 -21.276045 -33.330215 -56.328342 -19.929001 71.494347 -23.642649 18.307421 -65.306122 -21.247520 -2.899051 23.320927 -2.242707 29.194513 32.099754 46.059040 -27.465984 -1.706773 34.855259 -36.344101 -78.659210 12.535282 0.841102 17.059822 5.415149 -2.097299 -0.003875 -2.559752 -13.228412 17.229662 11.996054 -1.991635 0.327805 3.251923 5.565869 0.658558 5.420560 -11.435060 4.325994 
1.971704 51.227314 -2.019809 4.308379 0.234237 -1.962874 0.000000 0.000000 0.000000 0.777259 -3.829358 5.598210 31.330542 2.832030 0.049251 -4.993669 -2.182158 -4.006948 9.021947 5.970327 23.403347 -2.206322 -20.427637 -34.804356 -57.883503 -14.050530 64.994377 -23.116243 18.983442 -65.277771 -21.954514 -4.095810 22.773283 -9.956894 30.484035 28.952974 41.604755 -29.910679 -9.740522 32.765205 -37.278950 -77.801727 11.585691 0.352890 16.977196 5.869653 -1.861055 -0.051106 -2.350271 -13.280152 16.659800 11.188607 -2.714172 0.136648 3.691401 6.100403 0.762470 5.206970 -11.572949 3.149490 
1.899985 51.264206 -2.095938 4.158718 0.683272 -1.757920 0.000000 0.000000 0.000000 0.761172 -4.150636 5.522301 31.390320 3.017576 0.068779 -5.176528 -2.054673 -4.328987 9.098695 6.543096 23.290630 5.604410 -18.241764 -35.529846 -58.487450 -7.345741 58.932129 -22.432045 19.353662 -64.996269 -22.624704 -4.747610 22.438219 -17.953371 30.407269 26.709999 36.250664 -32.417095 -18.927525 30.522415 -38.092976 -76.866928 11.472596 0.000503 16.853727 6.108871 -1.784332 -0.012455 -2.411896 -13.338789 16.569307 11.269044 -3.554761 -0.114546 3.726154 7.003319 0.954382 4.482715 -11.679382 1.635030 
1.733136 51.356342 -2.097752 3.545119 0.917508 -1.816486 0.000000 0.000000 0.000000 1.208019 -4.306443 5.484062 31.400791 3.154294 0.078544 -5.473089 -2.229750 -4.398037 9.758385 7.213024 23.087103 15.209315 -14.319103 -35.516090 -57.612591 1.407667 50.807560 -20.410723 20.187109 -64.372543 -23.172426 -5.298506 22.126303 -27.919191 28.840015 25.591658 27.874071 -35.138012 -33.495491 27.469183 -39.526146 -75.458626 11.976128 0.157714 16.889732 6.389781 -1.998550 -0.074744 -2.240570 -13.367809 16.046837 12.103098 -3.680186 -0.180789 3.299065 7.183291 0.972169 3.492007 -11.815840 -0.256387 
1.596057 51.363937 -2.063160 3.466177 1.102802 -2.060917 0.000000 0.000000 0.000000 1.303608 -4.335677 5.474322 30.833038 2.890623 0.059012 -5.094493 -2.220129 -4.359003 11.137133 7.998974 22.707237 21.346226 -11.598746 -34.982124 -55.980141 7.786917 45.148453 -19.406662 21.166187 -64.107224 -24.033598 -6.162495 21.638651 -34.867775 27.610325 25.552990 20.133299 -36.621967 -42.579063 27.678087 -39.314289 -75.391167 11.882074 0.274428 16.926094 6.857095 -2.037307 -0.121914 -1.911155 -13.458007 15.078293 12.257207 -3.454827 -0.096413 3.132632 6.742963 0.863818 2.605294 -11.838161 -1.734678 
1.487419 51.316147 -2.003541 3.711533 1.405054 -2.363768 0.000000 0.000000 0.000000 1.155255 -4.355119 5.474320 29.903528 2.314453 0.029667 -4.395021 -1.850463 -4.211200 12.794443 9.015694 22.189793 26.218407 -8.908699 -34.232548 -53.727974 13.670695 39.341576 -18.757231 22.669785 -64.089264 -25.480677 -7.259276 20.899319 -41.515568 26.338696 26.186691 11.694925 -36.848465 -51.200695 28.376200 -38.276634 -75.644768 11.273321 0.186964 16.937538 7.664595 -1.853838 -0.148159 -1.802356 -13.531204 13.836996 12.203822 -3.466481 -0.110262 2.916265 6.465831 0.792357 1.748796 -11.444654 -2.803936 
1.416538 51.265316 -1.879490 3.604134 1.990276 -2.510964 0.000000 0.000000 0.000000 1.179748 -4.666723 5.408455 29.326527 2.089844 0.010115 -4.025759 -1.636600 -4.015378 14.050277 10.499738 21.578436 31.158062 -4.623040 -33.066196 -50.175404 19.608957 31.657930 -16.688042 23.239161 -63.222881 -26.642023 -8.456066 20.091940 -48.280567 23.505173 28.913328 2.279366 -34.856876 -64.139603 26.102915 -38.150471 -74.755920 10.741554 -0.477859 16.740545 8.989469 -1.053108 -0.035382 -2.135944 -13.781173 11.971627 12.785257 -4.138121 -0.333165 2.372498 6.810964 0.848809 1.315165 -10.794093 -3.038111 
1.369711 51.261757 -1.782211 3.364094 2.468143 -2.609628 0.000000 0.000000 0.000000 1.287280 -5.056335 5.323353 29.366005 2.255859 0.019900 -4.117326 -1.890018 -3.957433 14.456861 11.417007 21.261452 34.081184 -0.867363 -32.171692 -47.763214 22.797211 27.498081 -14.277513 22.857105 -62.045471 -26.711397 -9.296416 19.640957 -51.567375 20.964537 31.521191 -3.197424 -32.641842 -72.827988 24.521252 -38.443417 -74.058235 10.273991 -0.943776 16.596920 10.427819 -0.489122 0.015564 -2.721108 -13.824184 10.789753 13.345391 -4.696267 -0.483381 2.098204 7.054632 0.851474 1.136036 -10.529532 -3.311543 
1.296544 51.265316 -1.700551 3.446062 3.013965 -2.806556 0.000000 0.000000 0.000000 1.180270 -5.465581 5.228786 29.366013 2.275390 0.019904 -4.351793 -2.065549 -3.889470 15.002319 11.838696 21.017021 36.805470 2.950203 -31.303259 -45.349247 25.479731 24.174879 -12.324338 23.148626 -61.189342 -26.919279 -10.262836 19.104122 -54.149498 18.748537 33.830227 -8.119280 -30.288719 -79.578018 24.015779 -38.470451 -73.716621 9.178439 -1.385975 16.508430 12.489295 0.088421 0.009468 -3.799935 -13.550630 9.828657 13.501500 -5.252634 -0.679711 1.882686 7.247911 0.907755 0.673053 -10.304745 -4.056587 
1.186444 51.253231 -1.628094 3.929789 3.666373 -3.140833 0.000000 0.000000 0.000000 0.860292 -5.835762 5.162652 29.150732 2.001953 0.010101 -4.697261 -1.988140 -3.654885 16.136307 11.981852 20.692278 40.161457 7.433721 -30.250622 -41.467072 28.041573 18.657204 -10.776759 24.867550 -60.717293 -27.690290 -11.662797 18.174572 -57.033382 16.327581 36.428326 -13.660878 -26.679739 -86.027176 22.716539 -38.148529 -73.179985 6.607329 -1.911615 16.414261 16.502840 1.256625 0.015328 -5.862240 -12.582397 8.273111 13.039749 -5.885966 -0.855385 1.999888 7.520293 0.948583 0.183169 -9.696785 -4.324286 
1.094351 51.217197 -1.593516 4.256513 3.928495 -3.435728 0.000000 0.000000 0.000000 0.760869 -5.855213 5.163645 28.886435 1.660156 -0.009762 -4.725198 -1.939741 -3.498385 17.051138 12.377691 20.342339 41.675491 10.117793 -29.742147 -38.708138 29.148874 14.027957 -9.987914 26.182196 -60.549831 -28.105185 -12.821499 17.433697 -58.543484 14.565066 38.172737 -16.423183 -23.845573 -90.048294 21.082315 -38.226528 -72.550247 3.949288 -1.851570 16.501423 20.901579 2.318862 -0.027858 -7.013563 -11.995071 6.184103 12.492403 -6.040924 -0.883785 2.439865 7.490732 0.984173 0.246975 -8.867847 -3.304780 
0.961526 51.170460 -1.523763 4.014879 3.819788 -3.787153 0.000000 0.000000 0.000000 1.328529 -5.562917 5.219057 28.534290 1.269531 -0.039053 -4.660527 -1.979093 -3.322377 17.841248 12.927915 19.968508 42.424236 12.471847 -29.495823 -36.501266 29.686520 9.158287 -8.900949 26.970407 -60.211411 -28.492708 -13.973182 16.691708 -59.641766 12.903910 39.675156 -18.245321 -21.231749 -94.165146 19.538288 -38.656948 -71.869720 1.289925 -1.103593 16.760000 26.496864 3.433434 -0.143329 -7.064403 -12.140594 3.214614 12.601809 -5.710188 -0.803551 2.879007 7.373701 1.009228 0.073364 -8.499257 -2.783730 
0.798153 51.083923 -1.392757 3.305887 3.819395 -3.875499 0.000000 0.000000 0.000000 2.523557 -5.417040 5.218141 28.133808 1.123047 -0.048819 -4.868670 -2.164560 -3.215391 18.681755 13.811212 19.441383 42.954399 14.683475 -29.322496 -33.675751 29.950377 3.130655 -6.050973 27.210007 -59.114647 -29.193010 -14.860613 15.968858 -61.309254 10.698780 41.712784 -19.629463 -17.665152 -98.926086 17.494661 -39.052040 -71.085304 -2.689759 -0.335188 16.980793 35.048557 5.342490 -0.225502 -5.675548 -12.718041 -1.385666 13.736187 -5.701896 -0.796673 2.627081 7.675396 1.044392 0.005416 -8.083799 -2.370205 
